<svg xmlns="http://www.w3.org/2000/svg" xmlns:xlink="http://www.w3.org/1999/xlink" width="500" zoomAndPan="magnify" viewBox="0 0 375 374.999991" height="500" preserveAspectRatio="xMidYMid meet" version="1.0"><defs><g/><clipPath id="5710c64a05"><path d="M 123 166 L 139 166 L 139 173 L 123 173 Z M 123 166 " clip-rule="nonzero"/></clipPath><clipPath id="6563e12f7f"><path d="M 132.261719 103.789062 L 165.863281 120.441406 L 135.890625 180.921875 L 102.289062 164.269531 Z M 132.261719 103.789062 " clip-rule="nonzero"/></clipPath><clipPath id="f488fdb73c"><path d="M 132.261719 103.789062 L 200.132812 137.425781 L 170.164062 197.90625 L 102.289062 164.269531 Z M 132.261719 103.789062 " clip-rule="nonzero"/></clipPath><clipPath id="30dc423cd5"><path d="M 132 157 L 140 157 L 140 172 L 132 172 Z M 132 157 " clip-rule="nonzero"/></clipPath><clipPath id="2bf3a94a25"><path d="M 132.261719 103.789062 L 165.863281 120.441406 L 135.890625 180.921875 L 102.289062 164.269531 Z M 132.261719 103.789062 " clip-rule="nonzero"/></clipPath><clipPath id="fa7d972545"><path d="M 132.261719 103.789062 L 200.132812 137.425781 L 170.164062 197.90625 L 102.289062 164.269531 Z M 132.261719 103.789062 " clip-rule="nonzero"/></clipPath><clipPath id="9c69b4043f"><path d="M 119 160 L 134 160 L 134 167 L 119 167 Z M 119 160 " clip-rule="nonzero"/></clipPath><clipPath id="4258b3a771"><path d="M 132.261719 103.789062 L 165.863281 120.441406 L 135.890625 180.921875 L 102.289062 164.269531 Z M 132.261719 103.789062 " clip-rule="nonzero"/></clipPath><clipPath id="d840aac3b7"><path d="M 132.261719 103.789062 L 200.132812 137.425781 L 170.164062 197.90625 L 102.289062 164.269531 Z M 132.261719 103.789062 " clip-rule="nonzero"/></clipPath><clipPath id="95c4c299c6"><path d="M 127 146 L 131 146 L 131 162 L 127 162 Z M 127 146 " clip-rule="nonzero"/></clipPath><clipPath id="77ba482856"><path d="M 132.261719 103.789062 L 165.863281 120.441406 L 135.890625 180.921875 L 102.289062 164.269531 Z M 132.261719 103.789062 " clip-rule="nonzero"/></clipPath><clipPath id="00640955bb"><path d="M 132.261719 103.789062 L 200.132812 137.425781 L 170.164062 197.90625 L 102.289062 164.269531 Z M 132.261719 103.789062 " clip-rule="nonzero"/></clipPath><clipPath id="9d38d7684c"><path d="M 115 150 L 128 150 L 128 161 L 115 161 Z M 115 150 " clip-rule="nonzero"/></clipPath><clipPath id="e1d856bf77"><path d="M 132.261719 103.789062 L 165.863281 120.441406 L 135.890625 180.921875 L 102.289062 164.269531 Z M 132.261719 103.789062 " clip-rule="nonzero"/></clipPath><clipPath id="6739f429dd"><path d="M 132.261719 103.789062 L 200.132812 137.425781 L 170.164062 197.90625 L 102.289062 164.269531 Z M 132.261719 103.789062 " clip-rule="nonzero"/></clipPath><clipPath id="22cff1d6f6"><path d="M 118 142 L 127 142 L 127 156 L 118 156 Z M 118 142 " clip-rule="nonzero"/></clipPath><clipPath id="735f37a3ac"><path d="M 132.261719 103.789062 L 165.863281 120.441406 L 135.890625 180.921875 L 102.289062 164.269531 Z M 132.261719 103.789062 " clip-rule="nonzero"/></clipPath><clipPath id="3b9ade416a"><path d="M 132.261719 103.789062 L 200.132812 137.425781 L 170.164062 197.90625 L 102.289062 164.269531 Z M 132.261719 103.789062 " clip-rule="nonzero"/></clipPath><clipPath id="98cf67cfcf"><path d="M 124 134 L 131 134 L 131 149 L 124 149 Z M 124 134 " clip-rule="nonzero"/></clipPath><clipPath id="9ec9b5e1fa"><path d="M 132.261719 103.789062 L 165.863281 120.441406 L 135.890625 180.921875 L 102.289062 164.269531 Z M 132.261719 103.789062 " clip-rule="nonzero"/></clipPath><clipPath id="05a5e6565e"><path d="M 132.261719 103.789062 L 200.132812 137.425781 L 170.164062 197.90625 L 102.289062 164.269531 Z M 132.261719 103.789062 " clip-rule="nonzero"/></clipPath><clipPath id="6edd4863d7"><path d="M 118 132 L 124 132 L 124 145 L 118 145 Z M 118 132 " clip-rule="nonzero"/></clipPath><clipPath id="b2de0e1a02"><path d="M 132.261719 103.789062 L 165.863281 120.441406 L 135.890625 180.921875 L 102.289062 164.269531 Z M 132.261719 103.789062 " clip-rule="nonzero"/></clipPath><clipPath id="b185153bd9"><path d="M 132.261719 103.789062 L 200.132812 137.425781 L 170.164062 197.90625 L 102.289062 164.269531 Z M 132.261719 103.789062 " clip-rule="nonzero"/></clipPath><clipPath id="85886dc3c4"><path d="M 122 125 L 126 125 L 126 139 L 122 139 Z M 122 125 " clip-rule="nonzero"/></clipPath><clipPath id="3db1002d36"><path d="M 132.261719 103.789062 L 165.863281 120.441406 L 135.890625 180.921875 L 102.289062 164.269531 Z M 132.261719 103.789062 " clip-rule="nonzero"/></clipPath><clipPath id="8ce90ecfdd"><path d="M 132.261719 103.789062 L 200.132812 137.425781 L 170.164062 197.90625 L 102.289062 164.269531 Z M 132.261719 103.789062 " clip-rule="nonzero"/></clipPath><clipPath id="32e775195a"><path d="M 125 117 L 130 117 L 130 131 L 125 131 Z M 125 117 " clip-rule="nonzero"/></clipPath><clipPath id="3b24190f97"><path d="M 132.261719 103.789062 L 165.863281 120.441406 L 135.890625 180.921875 L 102.289062 164.269531 Z M 132.261719 103.789062 " clip-rule="nonzero"/></clipPath><clipPath id="a524e58498"><path d="M 132.261719 103.789062 L 200.132812 137.425781 L 170.164062 197.90625 L 102.289062 164.269531 Z M 132.261719 103.789062 " clip-rule="nonzero"/></clipPath><clipPath id="14b68aaf36"><path d="M 130 114 L 137 114 L 137 127 L 130 127 Z M 130 114 " clip-rule="nonzero"/></clipPath><clipPath id="e9d2841e1e"><path d="M 132.261719 103.789062 L 165.863281 120.441406 L 135.890625 180.921875 L 102.289062 164.269531 Z M 132.261719 103.789062 " clip-rule="nonzero"/></clipPath><clipPath id="f1960865d5"><path d="M 132.261719 103.789062 L 200.132812 137.425781 L 170.164062 197.90625 L 102.289062 164.269531 Z M 132.261719 103.789062 " clip-rule="nonzero"/></clipPath><clipPath id="972c094a2f"><path d="M 136 110 L 145 110 L 145 122 L 136 122 Z M 136 110 " clip-rule="nonzero"/></clipPath><clipPath id="47497f0ee3"><path d="M 132.261719 103.789062 L 165.863281 120.441406 L 135.890625 180.921875 L 102.289062 164.269531 Z M 132.261719 103.789062 " clip-rule="nonzero"/></clipPath><clipPath id="306621068e"><path d="M 132.261719 103.789062 L 200.132812 137.425781 L 170.164062 197.90625 L 102.289062 164.269531 Z M 132.261719 103.789062 " clip-rule="nonzero"/></clipPath><clipPath id="ed90916e57"><path d="M 126 126 L 136 126 L 136 136 L 126 136 Z M 126 126 " clip-rule="nonzero"/></clipPath><clipPath id="1d0594bb9f"><path d="M 132.261719 103.789062 L 165.863281 120.441406 L 135.890625 180.921875 L 102.289062 164.269531 Z M 132.261719 103.789062 " clip-rule="nonzero"/></clipPath><clipPath id="c152a7c1e4"><path d="M 132.261719 103.789062 L 200.132812 137.425781 L 170.164062 197.90625 L 102.289062 164.269531 Z M 132.261719 103.789062 " clip-rule="nonzero"/></clipPath><clipPath id="d3679711f5"><path d="M 134 120 L 147 120 L 147 126 L 134 126 Z M 134 120 " clip-rule="nonzero"/></clipPath><clipPath id="9743b297d1"><path d="M 132.261719 103.789062 L 165.863281 120.441406 L 135.890625 180.921875 L 102.289062 164.269531 Z M 132.261719 103.789062 " clip-rule="nonzero"/></clipPath><clipPath id="1c3664f4c3"><path d="M 132.261719 103.789062 L 200.132812 137.425781 L 170.164062 197.90625 L 102.289062 164.269531 Z M 132.261719 103.789062 " clip-rule="nonzero"/></clipPath><clipPath id="da6fd8e8b8"><path d="M 141 113 L 153 113 L 153 121 L 141 121 Z M 141 113 " clip-rule="nonzero"/></clipPath><clipPath id="4c43a12092"><path d="M 132.261719 103.789062 L 165.863281 120.441406 L 135.890625 180.921875 L 102.289062 164.269531 Z M 132.261719 103.789062 " clip-rule="nonzero"/></clipPath><clipPath id="719fa8e39f"><path d="M 132.261719 103.789062 L 200.132812 137.425781 L 170.164062 197.90625 L 102.289062 164.269531 Z M 132.261719 103.789062 " clip-rule="nonzero"/></clipPath><clipPath id="be378bb6ee"><path d="M 129 173 L 139 173 L 139 177 L 129 177 Z M 129 173 " clip-rule="nonzero"/></clipPath><clipPath id="a5a87f8508"><path d="M 132.261719 103.789062 L 165.863281 120.441406 L 135.890625 180.921875 L 102.289062 164.269531 Z M 132.261719 103.789062 " clip-rule="nonzero"/></clipPath><clipPath id="152e461c04"><path d="M 132.261719 103.789062 L 200.132812 137.425781 L 170.164062 197.90625 L 102.289062 164.269531 Z M 132.261719 103.789062 " clip-rule="nonzero"/></clipPath><clipPath id="f2e00b903e"><path d="M 228 168 L 244 168 L 244 174 L 228 174 Z M 228 168 " clip-rule="nonzero"/></clipPath><clipPath id="acc5871938"><path d="M 202.890625 121 L 237.054688 105.542969 L 264.878906 167.042969 L 230.714844 182.5 Z M 202.890625 121 " clip-rule="nonzero"/></clipPath><clipPath id="fa89d10ca8"><path d="M 236.980469 105.578125 L 167.964844 136.800781 L 195.789062 198.300781 L 264.804688 167.074219 Z M 236.980469 105.578125 " clip-rule="nonzero"/></clipPath><clipPath id="69d4d6c3a8"><path d="M 227 159 L 236 159 L 236 173 L 227 173 Z M 227 159 " clip-rule="nonzero"/></clipPath><clipPath id="34cbaec7b8"><path d="M 202.890625 121 L 237.054688 105.542969 L 264.878906 167.042969 L 230.714844 182.5 Z M 202.890625 121 " clip-rule="nonzero"/></clipPath><clipPath id="152f26106a"><path d="M 236.980469 105.578125 L 167.964844 136.800781 L 195.789062 198.300781 L 264.804688 167.074219 Z M 236.980469 105.578125 " clip-rule="nonzero"/></clipPath><clipPath id="2e20914acd"><path d="M 233 162 L 248 162 L 248 169 L 233 169 Z M 233 162 " clip-rule="nonzero"/></clipPath><clipPath id="74ac8ad39b"><path d="M 202.890625 121 L 237.054688 105.542969 L 264.878906 167.042969 L 230.714844 182.5 Z M 202.890625 121 " clip-rule="nonzero"/></clipPath><clipPath id="4190a0d3a0"><path d="M 236.980469 105.578125 L 167.964844 136.800781 L 195.789062 198.300781 L 264.804688 167.074219 Z M 236.980469 105.578125 " clip-rule="nonzero"/></clipPath><clipPath id="e8e0c3088a"><path d="M 236 148 L 241 148 L 241 164 L 236 164 Z M 236 148 " clip-rule="nonzero"/></clipPath><clipPath id="2c4e871438"><path d="M 202.890625 121 L 237.054688 105.542969 L 264.878906 167.042969 L 230.714844 182.5 Z M 202.890625 121 " clip-rule="nonzero"/></clipPath><clipPath id="1d879181c9"><path d="M 236.980469 105.578125 L 167.964844 136.800781 L 195.789062 198.300781 L 264.804688 167.074219 Z M 236.980469 105.578125 " clip-rule="nonzero"/></clipPath><clipPath id="28c72c20e1"><path d="M 239 153 L 252 153 L 252 162 L 239 162 Z M 239 153 " clip-rule="nonzero"/></clipPath><clipPath id="7cf432ce43"><path d="M 202.890625 121 L 237.054688 105.542969 L 264.878906 167.042969 L 230.714844 182.5 Z M 202.890625 121 " clip-rule="nonzero"/></clipPath><clipPath id="52120eefcf"><path d="M 236.980469 105.578125 L 167.964844 136.800781 L 195.789062 198.300781 L 264.804688 167.074219 Z M 236.980469 105.578125 " clip-rule="nonzero"/></clipPath><clipPath id="cb7f80d925"><path d="M 241 144 L 250 144 L 250 158 L 241 158 Z M 241 144 " clip-rule="nonzero"/></clipPath><clipPath id="bcb945cbf3"><path d="M 202.890625 121 L 237.054688 105.542969 L 264.878906 167.042969 L 230.714844 182.5 Z M 202.890625 121 " clip-rule="nonzero"/></clipPath><clipPath id="9578775270"><path d="M 236.980469 105.578125 L 167.964844 136.800781 L 195.789062 198.300781 L 264.804688 167.074219 Z M 236.980469 105.578125 " clip-rule="nonzero"/></clipPath><clipPath id="4385905468"><path d="M 237 136 L 243 136 L 243 151 L 237 151 Z M 237 136 " clip-rule="nonzero"/></clipPath><clipPath id="2c02ae7ef2"><path d="M 202.890625 121 L 237.054688 105.542969 L 264.878906 167.042969 L 230.714844 182.5 Z M 202.890625 121 " clip-rule="nonzero"/></clipPath><clipPath id="691e3f9b13"><path d="M 236.980469 105.578125 L 167.964844 136.800781 L 195.789062 198.300781 L 264.804688 167.074219 Z M 236.980469 105.578125 " clip-rule="nonzero"/></clipPath><clipPath id="e59fbba087"><path d="M 244 134 L 251 134 L 251 147 L 244 147 Z M 244 134 " clip-rule="nonzero"/></clipPath><clipPath id="a05fc42727"><path d="M 202.890625 121 L 237.054688 105.542969 L 264.878906 167.042969 L 230.714844 182.5 Z M 202.890625 121 " clip-rule="nonzero"/></clipPath><clipPath id="0b28ec9891"><path d="M 236.980469 105.578125 L 167.964844 136.800781 L 195.789062 198.300781 L 264.804688 167.074219 Z M 236.980469 105.578125 " clip-rule="nonzero"/></clipPath><clipPath id="bc0cbee7a7"><path d="M 242 127 L 246 127 L 246 141 L 242 141 Z M 242 127 " clip-rule="nonzero"/></clipPath><clipPath id="c4b845ced2"><path d="M 202.890625 121 L 237.054688 105.542969 L 264.878906 167.042969 L 230.714844 182.5 Z M 202.890625 121 " clip-rule="nonzero"/></clipPath><clipPath id="2b4ae56930"><path d="M 236.980469 105.578125 L 167.964844 136.800781 L 195.789062 198.300781 L 264.804688 167.074219 Z M 236.980469 105.578125 " clip-rule="nonzero"/></clipPath><clipPath id="5e17f770b7"><path d="M 239 119 L 243 119 L 243 133 L 239 133 Z M 239 119 " clip-rule="nonzero"/></clipPath><clipPath id="a9e321409e"><path d="M 202.890625 121 L 237.054688 105.542969 L 264.878906 167.042969 L 230.714844 182.5 Z M 202.890625 121 " clip-rule="nonzero"/></clipPath><clipPath id="f0a5255580"><path d="M 236.980469 105.578125 L 167.964844 136.800781 L 195.789062 198.300781 L 264.804688 167.074219 Z M 236.980469 105.578125 " clip-rule="nonzero"/></clipPath><clipPath id="74fb0e182d"><path d="M 232 115 L 238 115 L 238 129 L 232 129 Z M 232 115 " clip-rule="nonzero"/></clipPath><clipPath id="cdf08a691a"><path d="M 202.890625 121 L 237.054688 105.542969 L 264.878906 167.042969 L 230.714844 182.5 Z M 202.890625 121 " clip-rule="nonzero"/></clipPath><clipPath id="3aa81fc616"><path d="M 236.980469 105.578125 L 167.964844 136.800781 L 195.789062 198.300781 L 264.804688 167.074219 Z M 236.980469 105.578125 " clip-rule="nonzero"/></clipPath><clipPath id="b9133a1069"><path d="M 224 112 L 233 112 L 233 124 L 224 124 Z M 224 112 " clip-rule="nonzero"/></clipPath><clipPath id="d6d020ba10"><path d="M 202.890625 121 L 237.054688 105.542969 L 264.878906 167.042969 L 230.714844 182.5 Z M 202.890625 121 " clip-rule="nonzero"/></clipPath><clipPath id="2085a2e515"><path d="M 236.980469 105.578125 L 167.964844 136.800781 L 195.789062 198.300781 L 264.804688 167.074219 Z M 236.980469 105.578125 " clip-rule="nonzero"/></clipPath><clipPath id="9338682c71"><path d="M 232 128 L 242 128 L 242 138 L 232 138 Z M 232 128 " clip-rule="nonzero"/></clipPath><clipPath id="6e1b350e80"><path d="M 202.890625 121 L 237.054688 105.542969 L 264.878906 167.042969 L 230.714844 182.5 Z M 202.890625 121 " clip-rule="nonzero"/></clipPath><clipPath id="08e8fbc517"><path d="M 236.980469 105.578125 L 167.964844 136.800781 L 195.789062 198.300781 L 264.804688 167.074219 Z M 236.980469 105.578125 " clip-rule="nonzero"/></clipPath><clipPath id="75850da580"><path d="M 222 122 L 235 122 L 235 127 L 222 127 Z M 222 122 " clip-rule="nonzero"/></clipPath><clipPath id="98626b200d"><path d="M 202.890625 121 L 237.054688 105.542969 L 264.878906 167.042969 L 230.714844 182.5 Z M 202.890625 121 " clip-rule="nonzero"/></clipPath><clipPath id="dcd8224b87"><path d="M 236.980469 105.578125 L 167.964844 136.800781 L 195.789062 198.300781 L 264.804688 167.074219 Z M 236.980469 105.578125 " clip-rule="nonzero"/></clipPath><clipPath id="e0134bffc3"><path d="M 216 115 L 228 115 L 228 122 L 216 122 Z M 216 115 " clip-rule="nonzero"/></clipPath><clipPath id="3c5e839acd"><path d="M 202.890625 121 L 237.054688 105.542969 L 264.878906 167.042969 L 230.714844 182.5 Z M 202.890625 121 " clip-rule="nonzero"/></clipPath><clipPath id="22513b2dd0"><path d="M 236.980469 105.578125 L 167.964844 136.800781 L 195.789062 198.300781 L 264.804688 167.074219 Z M 236.980469 105.578125 " clip-rule="nonzero"/></clipPath><clipPath id="7771418cea"><path d="M 228 174 L 238 174 L 238 179 L 228 179 Z M 228 174 " clip-rule="nonzero"/></clipPath><clipPath id="a85fff709c"><path d="M 202.890625 121 L 237.054688 105.542969 L 264.878906 167.042969 L 230.714844 182.5 Z M 202.890625 121 " clip-rule="nonzero"/></clipPath><clipPath id="5a4e41f0b4"><path d="M 236.980469 105.578125 L 167.964844 136.800781 L 195.789062 198.300781 L 264.804688 167.074219 Z M 236.980469 105.578125 " clip-rule="nonzero"/></clipPath><clipPath id="ac09d2747a"><path d="M 148 110.621094 L 219 110.621094 L 219 134 L 148 134 Z M 148 110.621094 " clip-rule="nonzero"/></clipPath><clipPath id="8185482c02"><path d="M 139.152344 178 L 227.652344 178 L 227.652344 184.871094 L 139.152344 184.871094 Z M 139.152344 178 " clip-rule="nonzero"/></clipPath></defs><g clip-path="url(#5710c64a05)"><g clip-path="url(#6563e12f7f)"><g clip-path="url(#f488fdb73c)"><path fill="#2b2b2b" d="M 138.605469 171.292969 C 138.605469 171.292969 136.46875 173.433594 131 171.410156 C 125.527344 169.390625 123.859375 167.183594 123.859375 167.183594 C 123.859375 167.183594 128.660156 166.199219 132.058594 167.707031 C 135.453125 169.21875 138.605469 171.292969 138.605469 171.292969 Z M 138.605469 171.292969 " fill-opacity="1" fill-rule="nonzero"/></g></g></g><g clip-path="url(#30dc423cd5)"><g clip-path="url(#2bf3a94a25)"><g clip-path="url(#fa7d972545)"><path fill="#2b2b2b" d="M 138.605469 171.292969 C 138.605469 171.292969 140.328125 168.800781 137.492188 163.699219 C 134.65625 158.601562 132.21875 157.292969 132.21875 157.292969 C 132.21875 157.292969 131.828125 161.660156 134.230469 165.519531 C 136.191406 168.671875 138.605469 171.292969 138.605469 171.292969 Z M 138.605469 171.292969 " fill-opacity="1" fill-rule="nonzero"/></g></g></g><g clip-path="url(#9c69b4043f)"><g clip-path="url(#4258b3a771)"><g clip-path="url(#d840aac3b7)"><path fill="#2b2b2b" d="M 133.382812 166.335938 C 133.382812 166.335938 131.324219 163.828125 127.324219 161.84375 C 123.320312 159.859375 119.277344 160.445312 119.277344 160.445312 C 119.277344 160.445312 121.648438 163.109375 125.910156 165.21875 C 130.171875 167.332031 133.382812 166.335938 133.382812 166.335938 Z M 133.382812 166.335938 " fill-opacity="1" fill-rule="nonzero"/></g></g></g><g clip-path="url(#95c4c299c6)"><g clip-path="url(#77ba482856)"><g clip-path="url(#00640955bb)"><path fill="#2b2b2b" d="M 129.746094 161.363281 C 129.746094 161.363281 130.96875 158.355469 130.800781 153.894531 C 130.632812 149.429688 128.1875 146.15625 128.1875 146.15625 C 128.1875 146.15625 126.980469 149.507812 127.15625 154.261719 C 127.335938 159.015625 129.746094 161.363281 129.746094 161.363281 Z M 129.746094 161.363281 " fill-opacity="1" fill-rule="nonzero"/></g></g></g><g clip-path="url(#9d38d7684c)"><g clip-path="url(#e1d856bf77)"><g clip-path="url(#6739f429dd)"><path fill="#2b2b2b" d="M 127.925781 160.007812 C 127.925781 160.007812 126.515625 157.089844 123.089844 154.222656 C 119.664062 151.359375 115.59375 150.980469 115.59375 150.980469 C 115.59375 150.980469 117.273438 154.125 120.921875 157.175781 C 124.570312 160.226562 127.925781 160.007812 127.925781 160.007812 Z M 127.925781 160.007812 " fill-opacity="1" fill-rule="nonzero"/></g></g></g><g clip-path="url(#22cff1d6f6)"><g clip-path="url(#735f37a3ac)"><g clip-path="url(#3b9ade416a)"><path fill="#2b2b2b" d="M 126.015625 155.210938 C 126.015625 155.210938 125.839844 151.972656 123.785156 148.003906 C 121.734375 144.039062 118.128906 142.117188 118.128906 142.117188 C 118.128906 142.117188 118.464844 145.667969 120.648438 149.890625 C 122.835938 154.113281 126.015625 155.210938 126.015625 155.210938 Z M 126.015625 155.210938 " fill-opacity="1" fill-rule="nonzero"/></g></g></g><g clip-path="url(#98cf67cfcf)"><g clip-path="url(#9ec9b5e1fa)"><g clip-path="url(#05a5e6565e)"><path fill="#2b2b2b" d="M 125.175781 148.3125 C 125.175781 148.3125 127.429688 146.199219 129.058594 142.273438 C 130.6875 138.351562 129.878906 134.546875 129.878906 134.546875 C 129.878906 134.546875 127.496094 136.964844 125.761719 141.144531 C 124.027344 145.324219 125.175781 148.3125 125.175781 148.3125 Z M 125.175781 148.3125 " fill-opacity="1" fill-rule="nonzero"/></g></g></g><g clip-path="url(#6edd4863d7)"><g clip-path="url(#b2de0e1a02)"><g clip-path="url(#b185153bd9)"><path fill="#2b2b2b" d="M 123.679688 144.511719 C 123.679688 144.511719 123.828125 141.710938 122.429688 138.113281 C 121.03125 134.519531 118.109375 132.535156 118.109375 132.535156 C 118.109375 132.535156 118.070312 135.617188 119.558594 139.445312 C 121.046875 143.273438 123.679688 144.511719 123.679688 144.511719 Z M 123.679688 144.511719 " fill-opacity="1" fill-rule="nonzero"/></g></g></g><g clip-path="url(#85886dc3c4)"><g clip-path="url(#3db1002d36)"><g clip-path="url(#8ce90ecfdd)"><path fill="#2b2b2b" d="M 124.671875 138.636719 C 124.671875 138.636719 125.792969 136.066406 125.746094 132.207031 C 125.695312 128.347656 123.65625 125.46875 123.65625 125.46875 C 123.65625 125.46875 122.539062 128.339844 122.589844 132.445312 C 122.640625 136.554688 124.671875 138.636719 124.671875 138.636719 Z M 124.671875 138.636719 " fill-opacity="1" fill-rule="nonzero"/></g></g></g><g clip-path="url(#32e775195a)"><g clip-path="url(#3b24190f97)"><g clip-path="url(#a524e58498)"><path fill="#2b2b2b" d="M 127.308594 130.617188 C 127.308594 130.617188 128.761719 128.21875 129.234375 124.390625 C 129.707031 120.558594 128.074219 117.433594 128.074219 117.433594 C 128.074219 117.433594 126.578125 120.125 126.078125 124.203125 C 125.574219 128.28125 127.308594 130.617188 127.308594 130.617188 Z M 127.308594 130.617188 " fill-opacity="1" fill-rule="nonzero"/></g></g></g><g clip-path="url(#14b68aaf36)"><g clip-path="url(#e9d2841e1e)"><g clip-path="url(#f1960865d5)"><path fill="#2b2b2b" d="M 130.789062 126.195312 C 130.789062 126.195312 133.042969 124.53125 134.933594 121.167969 C 136.820312 117.800781 136.496094 114.289062 136.496094 114.289062 C 136.496094 114.289062 134.09375 116.210938 132.082031 119.796875 C 130.070312 123.378906 130.789062 126.195312 130.789062 126.195312 Z M 130.789062 126.195312 " fill-opacity="1" fill-rule="nonzero"/></g></g></g><g clip-path="url(#972c094a2f)"><g clip-path="url(#47497f0ee3)"><g clip-path="url(#306621068e)"><path fill="#2b2b2b" d="M 136.5625 121.660156 C 136.5625 121.660156 139.058594 120.386719 141.46875 117.375 C 143.878906 114.359375 144.128906 110.839844 144.128906 110.839844 C 144.128906 110.839844 141.445312 112.347656 138.878906 115.558594 C 136.3125 118.765625 136.5625 121.660156 136.5625 121.660156 Z M 136.5625 121.660156 " fill-opacity="1" fill-rule="nonzero"/></g></g></g><g clip-path="url(#ed90916e57)"><g clip-path="url(#1d0594bb9f)"><g clip-path="url(#c152a7c1e4)"><path fill="#2b2b2b" d="M 126.398438 135.480469 C 126.398438 135.480469 129.101562 134.730469 132.066406 132.261719 C 135.03125 129.792969 135.980469 126.394531 135.980469 126.394531 C 135.980469 126.394531 133.046875 127.335938 129.890625 129.964844 C 126.734375 132.59375 126.398438 135.480469 126.398438 135.480469 Z M 126.398438 135.480469 " fill-opacity="1" fill-rule="nonzero"/></g></g></g><g clip-path="url(#d3679711f5)"><g clip-path="url(#9743b297d1)"><g clip-path="url(#1c3664f4c3)"><path fill="#2b2b2b" d="M 134.066406 125.203125 C 134.066406 125.203125 136.839844 125.617188 140.554688 124.570312 C 144.265625 123.523438 146.519531 120.804688 146.519531 120.804688 C 146.519531 120.804688 143.457031 120.472656 139.503906 121.589844 C 135.546875 122.703125 134.066406 125.203125 134.066406 125.203125 Z M 134.066406 125.203125 " fill-opacity="1" fill-rule="nonzero"/></g></g></g><g clip-path="url(#da6fd8e8b8)"><g clip-path="url(#4c43a12092)"><g clip-path="url(#719fa8e39f)"><path fill="#2b2b2b" d="M 141.027344 120.039062 C 141.027344 120.039062 143.832031 120.066406 147.363281 118.519531 C 150.898438 116.96875 152.753906 113.96875 152.753906 113.96875 C 152.753906 113.96875 149.675781 114.058594 145.914062 115.707031 C 142.152344 117.355469 141.027344 120.039062 141.027344 120.039062 Z M 141.027344 120.039062 " fill-opacity="1" fill-rule="nonzero"/></g></g></g><g clip-path="url(#be378bb6ee)"><g clip-path="url(#a5a87f8508)"><g clip-path="url(#152e461c04)"><path fill="#2b2b2b" d="M 138.160156 173.09375 C 136.433594 176.574219 128.839844 177.519531 129.753906 175.671875 C 130.671875 173.824219 137.546875 174.328125 138.160156 173.09375 Z M 138.160156 173.09375 " fill-opacity="1" fill-rule="nonzero"/></g></g></g><g clip-path="url(#f2e00b903e)"><g clip-path="url(#acc5871938)"><g clip-path="url(#fa89d10ca8)"><path fill="#2b2b2b" d="M 228.265625 172.8125 C 228.265625 172.8125 230.324219 175.027344 235.863281 173.199219 C 241.402344 171.371094 243.148438 169.226562 243.148438 169.226562 C 243.148438 169.226562 238.382812 168.074219 234.933594 169.460938 C 231.488281 170.851562 228.265625 172.8125 228.265625 172.8125 Z M 228.265625 172.8125 " fill-opacity="1" fill-rule="nonzero"/></g></g></g><g clip-path="url(#69d4d6c3a8)"><g clip-path="url(#34cbaec7b8)"><g clip-path="url(#152f26106a)"><path fill="#2b2b2b" d="M 228.265625 172.8125 C 228.265625 172.8125 226.632812 170.261719 229.644531 165.265625 C 232.65625 160.269531 235.140625 159.046875 235.140625 159.046875 C 235.140625 159.046875 235.378906 163.421875 232.839844 167.195312 C 230.769531 170.28125 228.265625 172.8125 228.265625 172.8125 Z M 228.265625 172.8125 " fill-opacity="1" fill-rule="nonzero"/></g></g></g><g clip-path="url(#2e20914acd)"><g clip-path="url(#74ac8ad39b)"><g clip-path="url(#4190a0d3a0)"><path fill="#2b2b2b" d="M 233.65625 168.042969 C 233.65625 168.042969 235.800781 165.609375 239.871094 163.765625 C 243.941406 161.925781 247.960938 162.652344 247.960938 162.652344 C 247.960938 162.652344 245.5 165.230469 241.164062 167.191406 C 236.832031 169.152344 233.65625 168.042969 233.65625 168.042969 Z M 233.65625 168.042969 " fill-opacity="1" fill-rule="nonzero"/></g></g></g><g clip-path="url(#e8e0c3088a)"><g clip-path="url(#2c4e871438)"><g clip-path="url(#1d879181c9)"><path fill="#2b2b2b" d="M 237.46875 163.199219 C 237.46875 163.199219 236.351562 160.152344 236.675781 155.699219 C 237 151.246094 239.558594 148.058594 239.558594 148.058594 C 239.558594 148.058594 240.648438 151.453125 240.304688 156.195312 C 239.957031 160.9375 237.46875 163.199219 237.46875 163.199219 Z M 237.46875 163.199219 " fill-opacity="1" fill-rule="nonzero"/></g></g></g><g clip-path="url(#28c72c20e1)"><g clip-path="url(#7cf432ce43)"><g clip-path="url(#52120eefcf)"><path fill="#2b2b2b" d="M 239.332031 161.914062 C 239.332031 161.914062 240.847656 159.042969 244.375 156.300781 C 247.898438 153.558594 251.976562 153.324219 251.976562 153.324219 C 251.976562 153.324219 250.1875 156.40625 246.433594 159.328125 C 242.679688 162.25 239.332031 161.914062 239.332031 161.914062 Z M 239.332031 161.914062 " fill-opacity="1" fill-rule="nonzero"/></g></g></g><g clip-path="url(#cb7f80d925)"><g clip-path="url(#bcb945cbf3)"><g clip-path="url(#9578775270)"><path fill="#2b2b2b" d="M 241.414062 157.183594 C 241.414062 157.183594 241.703125 153.953125 243.894531 150.0625 C 246.085938 146.167969 249.757812 144.375 249.757812 144.375 C 249.757812 144.375 249.296875 147.914062 246.964844 152.058594 C 244.628906 156.203125 241.414062 157.183594 241.414062 157.183594 Z M 241.414062 157.183594 " fill-opacity="1" fill-rule="nonzero"/></g></g></g><g clip-path="url(#4385905468)"><g clip-path="url(#2c02ae7ef2)"><g clip-path="url(#691e3f9b13)"><path fill="#2b2b2b" d="M 242.496094 150.320312 C 242.496094 150.320312 240.316406 148.128906 238.828125 144.148438 C 237.335938 140.171875 238.28125 136.398438 238.28125 136.398438 C 238.28125 136.398438 240.574219 138.898438 242.160156 143.136719 C 243.746094 147.375 242.496094 150.320312 242.496094 150.320312 Z M 242.496094 150.320312 " fill-opacity="1" fill-rule="nonzero"/></g></g></g><g clip-path="url(#e59fbba087)"><g clip-path="url(#a05fc42727)"><g clip-path="url(#0b28ec9891)"><path fill="#2b2b2b" d="M 244.125 146.574219 C 244.125 146.574219 244.074219 143.769531 245.601562 140.226562 C 247.125 136.679688 250.113281 134.800781 250.113281 134.800781 C 250.113281 134.800781 250.042969 137.882812 248.421875 141.65625 C 246.796875 145.429688 244.125 146.574219 244.125 146.574219 Z M 244.125 146.574219 " fill-opacity="1" fill-rule="nonzero"/></g></g></g><g clip-path="url(#bc0cbee7a7)"><g clip-path="url(#c4b845ced2)"><g clip-path="url(#2b4ae56930)"><path fill="#2b2b2b" d="M 243.339844 140.667969 C 243.339844 140.667969 242.308594 138.058594 242.492188 134.203125 C 242.675781 130.351562 244.816406 127.542969 244.816406 127.542969 C 244.816406 127.542969 245.832031 130.449219 245.636719 134.554688 C 245.441406 138.660156 243.339844 140.667969 243.339844 140.667969 Z M 243.339844 140.667969 " fill-opacity="1" fill-rule="nonzero"/></g></g></g><g clip-path="url(#5e17f770b7)"><g clip-path="url(#a9e321409e)"><g clip-path="url(#f0a5255580)"><path fill="#2b2b2b" d="M 240.988281 132.558594 C 240.988281 132.558594 239.617188 130.113281 239.28125 126.269531 C 238.945312 122.425781 240.6875 119.355469 240.6875 119.355469 C 240.6875 119.355469 242.082031 122.101562 242.441406 126.195312 C 242.800781 130.289062 240.988281 132.558594 240.988281 132.558594 Z M 240.988281 132.558594 " fill-opacity="1" fill-rule="nonzero"/></g></g></g><g clip-path="url(#74fb0e182d)"><g clip-path="url(#cdf08a691a)"><g clip-path="url(#3aa81fc616)"><path fill="#2b2b2b" d="M 237.664062 128.019531 C 237.664062 128.019531 235.46875 126.277344 233.699219 122.847656 C 231.929688 119.417969 232.378906 115.917969 232.378906 115.917969 C 232.378906 115.917969 234.710938 117.925781 236.597656 121.578125 C 238.480469 125.230469 237.664062 128.019531 237.664062 128.019531 Z M 237.664062 128.019531 " fill-opacity="1" fill-rule="nonzero"/></g></g></g><g clip-path="url(#b9133a1069)"><g clip-path="url(#d6d020ba10)"><g clip-path="url(#2085a2e515)"><path fill="#2b2b2b" d="M 232.054688 123.285156 C 232.054688 123.285156 229.605469 121.921875 227.300781 118.828125 C 225 115.730469 224.871094 112.203125 224.871094 112.203125 C 224.871094 112.203125 227.503906 113.804688 229.953125 117.105469 C 232.40625 120.402344 232.054688 123.285156 232.054688 123.285156 Z M 232.054688 123.285156 " fill-opacity="1" fill-rule="nonzero"/></g></g></g><g clip-path="url(#9338682c71)"><g clip-path="url(#6e1b350e80)"><g clip-path="url(#08e8fbc517)"><path fill="#2b2b2b" d="M 241.726562 137.453125 C 241.726562 137.453125 239.050781 136.609375 236.175781 134.039062 C 233.296875 131.464844 232.46875 128.035156 232.46875 128.035156 C 232.46875 128.035156 235.363281 129.078125 238.429688 131.816406 C 241.492188 134.554688 241.726562 137.453125 241.726562 137.453125 Z M 241.726562 137.453125 " fill-opacity="1" fill-rule="nonzero"/></g></g></g><g clip-path="url(#75850da580)"><g clip-path="url(#98626b200d)"><g clip-path="url(#dcd8224b87)"><path fill="#2b2b2b" d="M 234.421875 126.914062 C 234.421875 126.914062 231.636719 127.230469 227.960938 126.050781 C 224.289062 124.875 222.132812 122.078125 222.132812 122.078125 C 222.132812 122.078125 225.203125 121.855469 229.117188 123.109375 C 233.03125 124.363281 234.421875 126.914062 234.421875 126.914062 Z M 234.421875 126.914062 " fill-opacity="1" fill-rule="nonzero"/></g></g></g><g clip-path="url(#e0134bffc3)"><g clip-path="url(#3c5e839acd)"><g clip-path="url(#22513b2dd0)"><path fill="#2b2b2b" d="M 227.648438 121.503906 C 227.648438 121.503906 224.84375 121.433594 221.367188 119.761719 C 217.890625 118.089844 216.140625 115.023438 216.140625 115.023438 C 216.140625 115.023438 219.214844 115.222656 222.917969 117.003906 C 226.621094 118.785156 227.648438 121.503906 227.648438 121.503906 Z M 227.648438 121.503906 " fill-opacity="1" fill-rule="nonzero"/></g></g></g><g clip-path="url(#7771418cea)"><g clip-path="url(#a85fff709c)"><g clip-path="url(#5a4e41f0b4)"><path fill="#2b2b2b" d="M 228.648438 174.628906 C 230.246094 178.167969 237.804688 179.382812 236.957031 177.503906 C 236.105469 175.625 229.214844 175.882812 228.648438 174.628906 Z M 228.648438 174.628906 " fill-opacity="1" fill-rule="nonzero"/></g></g></g><g clip-path="url(#ac09d2747a)"><path fill="#2b2b2b" d="M 148.746094 132.695312 C 148.714844 133.042969 148.828125 133.007812 149.125 133.003906 C 160.613281 132.980469 172.105469 133 183.597656 132.996094 C 183.597656 132.992188 183.597656 132.992188 183.597656 132.992188 C 195.132812 132.992188 206.667969 132.992188 218.203125 132.996094 C 218.382812 132.996094 218.398438 132.980469 218.402344 132.816406 C 218.402344 131.082031 218.394531 129.347656 218.402344 127.617188 C 218.410156 126.535156 217.488281 125.730469 216.566406 125.34375 C 206.855469 120.976562 197.132812 116.621094 187.425781 112.246094 C 186.300781 111.742188 185.175781 111.230469 184.058594 110.71875 C 183.902344 110.648438 183.777344 110.640625 183.617188 110.710938 C 177.625 113.363281 171.644531 116.035156 165.652344 118.683594 C 160.460938 121.03125 155.207031 123.246094 150.042969 125.644531 C 149.351562 126.039062 148.734375 126.722656 148.738281 127.558594 C 148.75 129.269531 148.742188 130.984375 148.746094 132.695312 Z M 158.058594 128.171875 C 166.265625 124.113281 174.519531 120.144531 182.757812 116.15625 C 183.203125 115.957031 183.703125 116.078125 184.175781 116.042969 C 184.433594 116.042969 184.679688 116.101562 184.914062 116.214844 C 185.589844 116.550781 186.269531 116.882812 186.945312 117.214844 C 194.34375 120.859375 201.761719 124.472656 209.144531 128.144531 C 192.390625 128.328125 174.863281 128.296875 158.058594 128.171875 Z M 158.058594 128.171875 " fill-opacity="1" fill-rule="nonzero"/></g><g clip-path="url(#8185482c02)"><path fill="#2b2b2b" d="M 227.890625 184.105469 C 227.890625 182.359375 227.894531 180.617188 227.890625 178.871094 C 227.882812 178.714844 227.871094 178.695312 227.71875 178.691406 C 202.3125 178.667969 176.910156 178.703125 151.507812 178.683594 C 147.515625 178.683594 143.527344 178.675781 139.535156 178.675781 C 139.15625 178.675781 139.152344 178.628906 139.152344 179.054688 C 139.15625 180.03125 139.15625 181.011719 139.160156 181.988281 C 139.164062 182.765625 139.167969 183.542969 139.175781 184.320312 C 139.175781 184.484375 139.195312 184.507812 139.371094 184.507812 C 154.082031 184.445312 168.796875 184.496094 183.511719 184.480469 C 183.511719 184.480469 183.511719 184.476562 183.511719 184.476562 C 198.210938 184.476562 212.917969 184.472656 227.617188 184.484375 C 227.925781 184.527344 227.898438 184.359375 227.890625 184.105469 Z M 227.890625 184.105469 " fill-opacity="1" fill-rule="nonzero"/></g><path fill="#2b2b2b" d="M 144.742188 176.996094 C 144.742188 177.351562 144.722656 177.347656 145.082031 177.347656 C 157.917969 177.328125 170.753906 177.339844 183.589844 177.335938 C 196.449219 177.335938 209.308594 177.339844 222.164062 177.339844 C 222.457031 177.359375 222.425781 177.261719 222.429688 177.015625 C 222.425781 175.304688 222.433594 173.59375 222.425781 171.878906 C 222.417969 171.777344 222.390625 171.742188 222.28125 171.742188 C 212.9375 171.722656 203.589844 171.738281 194.242188 171.734375 C 177.863281 171.734375 161.480469 171.730469 145.101562 171.734375 C 144.710938 171.734375 144.738281 171.707031 144.738281 172.097656 C 144.738281 173.730469 144.742188 175.363281 144.742188 176.996094 Z M 144.742188 176.996094 " fill-opacity="1" fill-rule="nonzero"/><path fill="#2b2b2b" d="M 217.007812 139.382812 C 217.207031 139.394531 217.128906 139.132812 217.148438 139.003906 C 217.148438 138.382812 217.152344 137.761719 217.152344 137.140625 C 217.152344 136.328125 217.152344 135.515625 217.148438 134.707031 C 217.148438 134.496094 217.136719 134.484375 216.917969 134.484375 C 205.808594 134.53125 194.695312 134.488281 183.582031 134.503906 C 183.582031 134.503906 183.582031 134.503906 183.582031 134.507812 C 172.492188 134.503906 161.40625 134.519531 150.316406 134.480469 C 149.992188 134.480469 149.992188 134.460938 149.992188 134.8125 C 150 136.300781 149.996094 137.789062 150.007812 139.277344 C 150.011719 139.339844 150.042969 139.382812 150.109375 139.386719 C 172.40625 139.386719 194.707031 139.390625 217.007812 139.382812 Z M 217.007812 139.382812 " fill-opacity="1" fill-rule="nonzero"/><path fill="#2b2b2b" d="M 203.699219 150.960938 C 203.664062 147.648438 203.652344 144.339844 203.605469 141.027344 C 203.601562 140.964844 203.566406 140.929688 203.5 140.925781 C 201.8125 140.917969 200.125 140.929688 198.4375 140.929688 C 198.3125 140.933594 198.113281 140.886719 198.125 141.066406 C 198.082031 144.066406 198.074219 147.066406 198.042969 150.066406 C 198 156.398438 197.902344 162.730469 197.878906 169.0625 C 197.878906 169.140625 197.914062 169.1875 197.996094 169.191406 C 199.859375 169.207031 201.726562 169.191406 203.59375 169.195312 C 203.9375 169.238281 203.863281 169.054688 203.871094 168.792969 C 203.816406 164.226562 203.785156 159.660156 203.742188 155.09375 C 203.746094 155.09375 203.75 155.09375 203.757812 155.09375 C 203.738281 153.714844 203.714844 152.339844 203.699219 150.960938 Z M 203.699219 150.960938 " fill-opacity="1" fill-rule="nonzero"/><path fill="#2b2b2b" d="M 174.636719 165.996094 C 174.628906 166.996094 174.628906 167.996094 174.628906 168.992188 C 174.585938 169.273438 174.835938 169.175781 175.011719 169.195312 C 176.832031 169.191406 178.65625 169.195312 180.476562 169.195312 C 180.554688 169.191406 180.605469 169.160156 180.605469 169.078125 C 180.539062 161.078125 180.460938 153.078125 180.367188 145.078125 C 180.355469 143.8125 180.351562 142.542969 180.34375 141.277344 C 180.339844 140.90625 180.363281 140.929688 180.003906 140.929688 C 178.4375 140.933594 176.871094 140.933594 175.304688 140.933594 C 174.832031 140.933594 174.886719 140.867188 174.882812 141.363281 C 174.882812 145.941406 174.816406 150.519531 174.753906 155.09375 C 174.757812 155.09375 174.757812 155.09375 174.757812 155.09375 C 174.703125 158.726562 174.660156 162.359375 174.636719 165.996094 Z M 174.636719 165.996094 " fill-opacity="1" fill-rule="nonzero"/><path fill="#2b2b2b" d="M 168.714844 141.269531 C 168.710938 140.875 168.703125 140.929688 168.367188 140.929688 C 166.789062 140.929688 165.210938 140.933594 163.632812 140.933594 C 163.253906 140.933594 163.273438 140.882812 163.269531 141.289062 C 163.230469 145.90625 163.203125 150.425781 163.171875 155.085938 C 163.089844 159.628906 163.058594 164.296875 163.023438 168.859375 C 163.019531 169.207031 163.003906 169.183594 163.347656 169.1875 C 165.179688 169.1875 167.015625 169.191406 168.847656 169.191406 C 168.925781 169.191406 168.972656 169.148438 168.976562 169.074219 C 168.972656 166.5625 168.914062 164.050781 168.894531 161.539062 C 168.816406 154.785156 168.734375 148.027344 168.714844 141.269531 Z M 168.714844 141.269531 " fill-opacity="1" fill-rule="nonzero"/><path fill="#2b2b2b" d="M 186.316406 164.917969 C 186.308594 166.1875 186.292969 167.453125 186.289062 168.71875 C 186.289062 169.257812 186.203125 169.191406 186.765625 169.195312 C 188.445312 169.199219 190.121094 169.195312 191.796875 169.191406 C 192.261719 169.191406 192.214844 169.25 192.210938 168.792969 C 192.171875 159.695312 192.019531 150.601562 191.949219 141.503906 C 191.949219 141.347656 191.945312 141.191406 191.941406 141.035156 C 191.925781 140.875 191.710938 140.945312 191.601562 140.929688 C 190.011719 140.929688 188.421875 140.929688 186.835938 140.929688 C 186.542969 140.929688 186.546875 140.921875 186.546875 141.226562 C 186.507812 145.835938 186.457031 150.445312 186.410156 155.054688 C 186.414062 155.054688 186.417969 155.054688 186.417969 155.054688 C 186.378906 158.34375 186.34375 161.628906 186.316406 164.917969 Z M 186.316406 164.917969 " fill-opacity="1" fill-rule="nonzero"/><path fill="#2b2b2b" d="M 215.242188 151.289062 C 215.210938 147.945312 215.179688 144.601562 215.144531 141.257812 C 215.140625 140.90625 215.15625 140.925781 214.820312 140.925781 C 213.21875 140.929688 211.621094 140.929688 210.019531 140.929688 C 209.925781 140.929688 209.753906 140.898438 209.75 141.035156 C 209.730469 142.324219 209.726562 143.613281 209.707031 144.898438 C 209.605469 152.863281 209.5625 160.828125 209.496094 168.792969 C 209.492188 169.242188 209.4375 169.199219 209.910156 169.199219 C 211.699219 169.199219 213.488281 169.199219 215.277344 169.195312 C 215.378906 169.1875 215.40625 169.164062 215.410156 169.050781 C 215.429688 164.394531 215.335938 159.742188 215.28125 155.085938 C 215.28125 155.085938 215.285156 155.085938 215.285156 155.085938 C 215.273438 153.820312 215.257812 152.554688 215.242188 151.289062 Z M 215.242188 151.289062 " fill-opacity="1" fill-rule="nonzero"/><path fill="#2b2b2b" d="M 157.230469 156.109375 C 157.1875 151.179688 157.136719 146.242188 157.097656 141.3125 C 157.09375 140.878906 157.109375 140.929688 156.722656 140.929688 C 155.15625 140.929688 153.589844 140.929688 152.023438 140.929688 C 151.640625 140.929688 151.667969 140.894531 151.660156 141.292969 C 151.605469 150.5 151.484375 159.628906 151.457031 168.792969 C 151.457031 169.242188 151.40625 169.195312 151.871094 169.195312 C 153.636719 169.199219 155.40625 169.191406 157.171875 169.195312 C 157.3125 169.191406 157.328125 169.175781 157.335938 169.046875 C 157.292969 164.734375 157.257812 160.421875 157.230469 156.109375 Z M 157.230469 156.109375 " fill-opacity="1" fill-rule="nonzero"/><g fill="#2b2b2b" fill-opacity="1"><g transform="translate(108.427878, 204.607665)"><g><path d="M 1.234375 -12.265625 L 6.5 -12.265625 C 8.425781 -12.265625 9.992188 -11.695312 11.203125 -10.5625 C 12.421875 -9.4375 13.03125 -7.960938 13.03125 -6.140625 C 13.03125 -4.328125 12.414062 -2.847656 11.1875 -1.703125 C 9.957031 -0.566406 8.351562 0 6.375 0 L 1.234375 0 Z M 4.34375 -9.78125 L 4.34375 -2.484375 L 6.578125 -2.484375 C 7.535156 -2.484375 8.320312 -2.816406 8.9375 -3.484375 C 9.550781 -4.160156 9.859375 -5.035156 9.859375 -6.109375 C 9.859375 -7.191406 9.535156 -8.070312 8.890625 -8.75 C 8.242188 -9.4375 7.425781 -9.78125 6.4375 -9.78125 Z M 4.34375 -9.78125 "/></g></g></g><g fill="#2b2b2b" fill-opacity="1"><g transform="translate(131.752231, 204.607665)"><g><path d="M 10.828125 -9.8125 L 4.34375 -9.8125 L 4.34375 -7.375 L 10.203125 -7.375 L 10.203125 -4.921875 L 4.34375 -4.921875 L 4.34375 -2.453125 L 11.03125 -2.453125 L 11.03125 0 L 1.234375 0 L 1.234375 -12.265625 L 10.828125 -12.265625 Z M 10.828125 -9.8125 "/></g></g></g><g fill="#2b2b2b" fill-opacity="1"><g transform="translate(153.445802, 204.607665)"><g><path d="M 7.984375 0 L 4.75 0 L -0.015625 -12.265625 L 3.3125 -12.265625 L 6.453125 -3.25 L 9.59375 -12.265625 L 12.796875 -12.265625 Z M 7.984375 0 "/></g></g></g><g fill="#2b2b2b" fill-opacity="1"><g transform="translate(176.103817, 204.607665)"><g><path d="M 1.234375 -12.265625 L 7.03125 -12.265625 C 8.40625 -12.265625 9.5 -11.988281 10.3125 -11.4375 C 11.125 -10.882812 11.53125 -10.140625 11.53125 -9.203125 C 11.53125 -8.554688 11.34375 -7.988281 10.96875 -7.5 C 10.59375 -7.019531 10.082031 -6.6875 9.4375 -6.5 C 10.207031 -6.351562 10.816406 -6 11.265625 -5.4375 C 11.722656 -4.875 11.953125 -4.195312 11.953125 -3.40625 C 11.953125 -2.363281 11.53125 -1.535156 10.6875 -0.921875 C 9.84375 -0.304688 8.691406 0 7.234375 0 L 1.234375 0 Z M 4.328125 -9.890625 L 4.328125 -7.359375 L 6.859375 -7.359375 C 7.304688 -7.359375 7.664062 -7.472656 7.9375 -7.703125 C 8.207031 -7.929688 8.34375 -8.242188 8.34375 -8.640625 C 8.34375 -9.023438 8.207031 -9.328125 7.9375 -9.546875 C 7.664062 -9.773438 7.304688 -9.890625 6.859375 -9.890625 Z M 4.328125 -5.125 L 4.328125 -2.40625 L 6.859375 -2.40625 C 7.441406 -2.40625 7.898438 -2.523438 8.234375 -2.765625 C 8.566406 -3.015625 8.734375 -3.351562 8.734375 -3.78125 C 8.734375 -4.195312 8.566406 -4.523438 8.234375 -4.765625 C 7.898438 -5.003906 7.441406 -5.125 6.859375 -5.125 Z M 4.328125 -5.125 "/></g></g></g><g fill="#2b2b2b" fill-opacity="1"><g transform="translate(198.516334, 204.607665)"><g><path d="M 9.375 -2.265625 L 4.015625 -2.265625 L 3.125 0 L -0.09375 0 L 5.203125 -12.265625 L 8.421875 -12.265625 L 13.59375 0 L 10.25 0 Z M 8.46875 -4.625 L 6.71875 -9.171875 L 4.921875 -4.625 Z M 8.46875 -4.625 "/></g></g></g><g fill="#2b2b2b" fill-opacity="1"><g transform="translate(221.893297, 204.607665)"><g><path d="M 12.546875 0 L 9.796875 0 L 4.15625 -7.5625 L 4.15625 0 L 1.234375 0 L 1.234375 -12.265625 L 3.984375 -12.265625 L 9.640625 -4.703125 L 9.640625 -12.265625 L 12.546875 -12.265625 Z M 12.546875 0 "/></g></g></g><g fill="#2b2b2b" fill-opacity="1"><g transform="translate(245.550827, 204.607665)"><g><path d="M 9.21875 0 L 5.984375 -4.828125 L 4.34375 -3.015625 L 4.34375 0 L 1.234375 0 L 1.234375 -12.265625 L 4.34375 -12.265625 L 4.34375 -6.953125 L 9.046875 -12.265625 L 12.65625 -12.265625 L 8.09375 -7.1875 L 12.953125 0 Z M 9.21875 0 "/></g></g></g><g fill="#2b2b2b" fill-opacity="1"><g transform="translate(110.094351, 218.376246)"><g><path d="M 3.90625 -4.125 L 1.453125 -4.125 L 1.453125 -2.71875 L 3.671875 -2.71875 L 3.671875 -2 L 1.453125 -2 L 1.453125 0 L 0.640625 0 L 0.640625 -4.875 L 3.90625 -4.875 Z M 3.90625 -4.125 "/></g></g></g><g fill="#2b2b2b" fill-opacity="1"><g transform="translate(118.647195, 218.376246)"><g><path d="M 1.453125 0 L 0.640625 0 L 0.640625 -4.875 L 1.453125 -4.875 Z M 1.453125 0 "/></g></g></g><g fill="#2b2b2b" fill-opacity="1"><g transform="translate(125.302124, 218.376246)"><g><path d="M 4.859375 0 L 4.046875 0 L 1.453125 -3.484375 L 1.453125 0 L 0.640625 0 L 0.640625 -4.875 L 1.453125 -4.875 L 4.046875 -1.375 L 4.046875 -4.875 L 4.859375 -4.875 Z M 4.859375 0 "/></g></g></g><g fill="#2b2b2b" fill-opacity="1"><g transform="translate(135.363568, 218.376246)"><g><path d="M 3.78125 -1.09375 L 1.328125 -1.09375 L 0.859375 0 L 0 0 L 2.15625 -4.875 L 3 -4.875 L 5.125 0 L 4.25 0 Z M 3.46875 -1.828125 L 2.546875 -3.984375 L 1.640625 -1.828125 Z M 3.46875 -1.828125 "/></g></g></g><g fill="#2b2b2b" fill-opacity="1"><g transform="translate(145.049598, 218.376246)"><g><path d="M 4.859375 0 L 4.046875 0 L 1.453125 -3.484375 L 1.453125 0 L 0.640625 0 L 0.640625 -4.875 L 1.453125 -4.875 L 4.046875 -1.375 L 4.046875 -4.875 L 4.859375 -4.875 Z M 4.859375 0 "/></g></g></g><g fill="#2b2b2b" fill-opacity="1"><g transform="translate(155.111042, 218.376246)"><g><path d="M 2.796875 -4.890625 C 3.140625 -4.890625 3.472656 -4.820312 3.796875 -4.6875 C 4.128906 -4.550781 4.410156 -4.367188 4.640625 -4.140625 L 4.171875 -3.546875 C 3.992188 -3.734375 3.78125 -3.878906 3.53125 -3.984375 C 3.289062 -4.097656 3.050781 -4.15625 2.8125 -4.15625 C 2.320312 -4.15625 1.910156 -3.988281 1.578125 -3.65625 C 1.242188 -3.320312 1.078125 -2.921875 1.078125 -2.453125 C 1.078125 -1.960938 1.242188 -1.550781 1.578125 -1.21875 C 1.910156 -0.894531 2.320312 -0.734375 2.8125 -0.734375 C 3.3125 -0.734375 3.765625 -0.925781 4.171875 -1.3125 L 4.65625 -0.765625 C 4.40625 -0.515625 4.113281 -0.316406 3.78125 -0.171875 C 3.445312 -0.0351562 3.109375 0.03125 2.765625 0.03125 C 2.054688 0.03125 1.457031 -0.203125 0.96875 -0.671875 C 0.476562 -1.148438 0.234375 -1.738281 0.234375 -2.4375 C 0.234375 -3.132812 0.476562 -3.71875 0.96875 -4.1875 C 1.46875 -4.65625 2.078125 -4.890625 2.796875 -4.890625 Z M 2.796875 -4.890625 "/></g></g></g><g fill="#2b2b2b" fill-opacity="1"><g transform="translate(164.512034, 218.376246)"><g><path d="M 4.109375 -4.125 L 1.453125 -4.125 L 1.453125 -2.8125 L 3.84375 -2.8125 L 3.84375 -2.078125 L 1.453125 -2.078125 L 1.453125 -0.734375 L 4.203125 -0.734375 L 4.203125 0 L 0.640625 0 L 0.640625 -4.875 L 4.109375 -4.875 Z M 4.109375 -4.125 "/></g></g></g><g fill="#2b2b2b" fill-opacity="1"><g transform="translate(173.627999, 218.376246)"><g/></g></g><g fill="#2b2b2b" fill-opacity="1"><g transform="translate(179.977028, 218.376246)"><g><path d="M 2.234375 -4.90625 C 2.867188 -4.90625 3.4375 -4.738281 3.9375 -4.40625 L 3.609375 -3.671875 C 3.109375 -3.972656 2.628906 -4.125 2.171875 -4.125 C 1.929688 -4.125 1.738281 -4.078125 1.59375 -3.984375 C 1.457031 -3.898438 1.390625 -3.773438 1.390625 -3.609375 C 1.390625 -3.453125 1.453125 -3.316406 1.578125 -3.203125 C 1.703125 -3.085938 1.863281 -3.003906 2.0625 -2.953125 C 2.257812 -2.898438 2.46875 -2.832031 2.6875 -2.75 C 2.914062 -2.675781 3.128906 -2.59375 3.328125 -2.5 C 3.523438 -2.40625 3.6875 -2.257812 3.8125 -2.0625 C 3.9375 -1.875 4 -1.644531 4 -1.375 C 4 -0.945312 3.828125 -0.601562 3.484375 -0.34375 C 3.148438 -0.09375 2.710938 0.03125 2.171875 0.03125 C 1.796875 0.03125 1.429688 -0.0351562 1.078125 -0.171875 C 0.734375 -0.316406 0.4375 -0.507812 0.1875 -0.75 L 0.53125 -1.453125 C 0.78125 -1.222656 1.050781 -1.046875 1.34375 -0.921875 C 1.632812 -0.804688 1.914062 -0.75 2.1875 -0.75 C 2.46875 -0.75 2.6875 -0.800781 2.84375 -0.90625 C 3.007812 -1.007812 3.09375 -1.148438 3.09375 -1.328125 C 3.09375 -1.492188 3.023438 -1.632812 2.890625 -1.75 C 2.765625 -1.863281 2.601562 -1.945312 2.40625 -2 C 2.21875 -2.0625 2.007812 -2.128906 1.78125 -2.203125 C 1.550781 -2.273438 1.335938 -2.351562 1.140625 -2.4375 C 0.953125 -2.53125 0.789062 -2.671875 0.65625 -2.859375 C 0.53125 -3.046875 0.46875 -3.273438 0.46875 -3.546875 C 0.46875 -3.960938 0.628906 -4.289062 0.953125 -4.53125 C 1.273438 -4.78125 1.703125 -4.90625 2.234375 -4.90625 Z M 2.234375 -4.90625 "/></g></g></g><g fill="#2b2b2b" fill-opacity="1"><g transform="translate(188.856616, 218.376246)"><g><path d="M 0.96875 -4.1875 C 1.46875 -4.65625 2.082031 -4.890625 2.8125 -4.890625 C 3.539062 -4.890625 4.148438 -4.65625 4.640625 -4.1875 C 5.140625 -3.71875 5.390625 -3.132812 5.390625 -2.4375 C 5.390625 -1.738281 5.140625 -1.148438 4.640625 -0.671875 C 4.148438 -0.203125 3.539062 0.03125 2.8125 0.03125 C 2.082031 0.03125 1.46875 -0.203125 0.96875 -0.671875 C 0.476562 -1.148438 0.234375 -1.738281 0.234375 -2.4375 C 0.234375 -3.132812 0.476562 -3.71875 0.96875 -4.1875 Z M 2.828125 -4.15625 C 2.335938 -4.15625 1.921875 -3.988281 1.578125 -3.65625 C 1.242188 -3.320312 1.078125 -2.910156 1.078125 -2.421875 C 1.078125 -1.941406 1.25 -1.535156 1.59375 -1.203125 C 1.9375 -0.867188 2.347656 -0.703125 2.828125 -0.703125 C 3.304688 -0.703125 3.710938 -0.867188 4.046875 -1.203125 C 4.378906 -1.535156 4.546875 -1.941406 4.546875 -2.421875 C 4.546875 -2.910156 4.378906 -3.320312 4.046875 -3.65625 C 3.710938 -3.988281 3.304688 -4.15625 2.828125 -4.15625 Z M 2.828125 -4.15625 "/></g></g></g><g fill="#2b2b2b" fill-opacity="1"><g transform="translate(199.043192, 218.376246)"><g><path d="M 1.453125 -0.75 L 3.5625 -0.75 L 3.5625 0 L 0.640625 0 L 0.640625 -4.875 L 1.453125 -4.875 Z M 1.453125 -0.75 "/></g></g></g><g fill="#2b2b2b" fill-opacity="1"><g transform="translate(207.311002, 218.376246)"><g><path d="M 4.78125 -4.875 L 4.78125 -2.015625 C 4.78125 -1.378906 4.59375 -0.878906 4.21875 -0.515625 C 3.84375 -0.148438 3.320312 0.03125 2.65625 0.03125 C 2 0.03125 1.484375 -0.148438 1.109375 -0.515625 C 0.734375 -0.878906 0.546875 -1.378906 0.546875 -2.015625 L 0.546875 -4.875 L 1.359375 -4.875 L 1.359375 -2.015625 C 1.359375 -1.609375 1.472656 -1.285156 1.703125 -1.046875 C 1.941406 -0.816406 2.265625 -0.703125 2.671875 -0.703125 C 3.066406 -0.703125 3.378906 -0.816406 3.609375 -1.046875 C 3.835938 -1.273438 3.953125 -1.597656 3.953125 -2.015625 L 3.953125 -4.875 Z M 4.78125 -4.875 "/></g></g></g><g fill="#2b2b2b" fill-opacity="1"><g transform="translate(217.177788, 218.376246)"><g><path d="M 3.96875 -4.125 L 2.421875 -4.125 L 2.421875 0 L 1.59375 0 L 1.59375 -4.125 L 0.0625 -4.125 L 0.0625 -4.875 L 3.96875 -4.875 Z M 3.96875 -4.125 "/></g></g></g><g fill="#2b2b2b" fill-opacity="1"><g transform="translate(225.758445, 218.376246)"><g><path d="M 1.453125 0 L 0.640625 0 L 0.640625 -4.875 L 1.453125 -4.875 Z M 1.453125 0 "/></g></g></g><g fill="#2b2b2b" fill-opacity="1"><g transform="translate(232.413377, 218.376246)"><g><path d="M 0.96875 -4.1875 C 1.46875 -4.65625 2.082031 -4.890625 2.8125 -4.890625 C 3.539062 -4.890625 4.148438 -4.65625 4.640625 -4.1875 C 5.140625 -3.71875 5.390625 -3.132812 5.390625 -2.4375 C 5.390625 -1.738281 5.140625 -1.148438 4.640625 -0.671875 C 4.148438 -0.203125 3.539062 0.03125 2.8125 0.03125 C 2.082031 0.03125 1.46875 -0.203125 0.96875 -0.671875 C 0.476562 -1.148438 0.234375 -1.738281 0.234375 -2.4375 C 0.234375 -3.132812 0.476562 -3.71875 0.96875 -4.1875 Z M 2.828125 -4.15625 C 2.335938 -4.15625 1.921875 -3.988281 1.578125 -3.65625 C 1.242188 -3.320312 1.078125 -2.910156 1.078125 -2.421875 C 1.078125 -1.941406 1.25 -1.535156 1.59375 -1.203125 C 1.9375 -0.867188 2.347656 -0.703125 2.828125 -0.703125 C 3.304688 -0.703125 3.710938 -0.867188 4.046875 -1.203125 C 4.378906 -1.535156 4.546875 -1.941406 4.546875 -2.421875 C 4.546875 -2.910156 4.378906 -3.320312 4.046875 -3.65625 C 3.710938 -3.988281 3.304688 -4.15625 2.828125 -4.15625 Z M 2.828125 -4.15625 "/></g></g></g><g fill="#2b2b2b" fill-opacity="1"><g transform="translate(242.599953, 218.376246)"><g><path d="M 4.859375 0 L 4.046875 0 L 1.453125 -3.484375 L 1.453125 0 L 0.640625 0 L 0.640625 -4.875 L 1.453125 -4.875 L 4.046875 -1.375 L 4.046875 -4.875 L 4.859375 -4.875 Z M 4.859375 0 "/></g></g></g><g fill="#2b2b2b" fill-opacity="1"><g transform="translate(252.661394, 218.376246)"><g><path d="M 2.234375 -4.90625 C 2.867188 -4.90625 3.4375 -4.738281 3.9375 -4.40625 L 3.609375 -3.671875 C 3.109375 -3.972656 2.628906 -4.125 2.171875 -4.125 C 1.929688 -4.125 1.738281 -4.078125 1.59375 -3.984375 C 1.457031 -3.898438 1.390625 -3.773438 1.390625 -3.609375 C 1.390625 -3.453125 1.453125 -3.316406 1.578125 -3.203125 C 1.703125 -3.085938 1.863281 -3.003906 2.0625 -2.953125 C 2.257812 -2.898438 2.46875 -2.832031 2.6875 -2.75 C 2.914062 -2.675781 3.128906 -2.59375 3.328125 -2.5 C 3.523438 -2.40625 3.6875 -2.257812 3.8125 -2.0625 C 3.9375 -1.875 4 -1.644531 4 -1.375 C 4 -0.945312 3.828125 -0.601562 3.484375 -0.34375 C 3.148438 -0.09375 2.710938 0.03125 2.171875 0.03125 C 1.796875 0.03125 1.429688 -0.0351562 1.078125 -0.171875 C 0.734375 -0.316406 0.4375 -0.507812 0.1875 -0.75 L 0.53125 -1.453125 C 0.78125 -1.222656 1.050781 -1.046875 1.34375 -0.921875 C 1.632812 -0.804688 1.914062 -0.75 2.1875 -0.75 C 2.46875 -0.75 2.6875 -0.800781 2.84375 -0.90625 C 3.007812 -1.007812 3.09375 -1.148438 3.09375 -1.328125 C 3.09375 -1.492188 3.023438 -1.632812 2.890625 -1.75 C 2.765625 -1.863281 2.601562 -1.945312 2.40625 -2 C 2.21875 -2.0625 2.007812 -2.128906 1.78125 -2.203125 C 1.550781 -2.273438 1.335938 -2.351562 1.140625 -2.4375 C 0.953125 -2.53125 0.789062 -2.671875 0.65625 -2.859375 C 0.53125 -3.046875 0.46875 -3.273438 0.46875 -3.546875 C 0.46875 -3.960938 0.628906 -4.289062 0.953125 -4.53125 C 1.273438 -4.78125 1.703125 -4.90625 2.234375 -4.90625 Z M 2.234375 -4.90625 "/></g></g></g></svg>